<svg width="201" height="437" viewBox="0 0 201 437" fill="none" xmlns="http://www.w3.org/2000/svg">
<g clip-path="url(#clip0_220_1066)">
<g clip-path="url(#clip1_220_1066)">
<rect width="201" height="437" rx="12.5" fill="white"/>
<g clip-path="url(#clip2_220_1066)">
<rect width="201.5" height="276" transform="translate(-0.5 114)" fill="white"/>
<rect x="-261.5" y="50.5" width="724" height="434" fill="black" fill-opacity="0.2"/>
<path d="M84.2119 237V227.861H86.6357V229.289H86.7852C86.9788 228.774 87.2998 228.375 87.748 228.093C88.1963 227.806 88.7192 227.662 89.3169 227.662C89.7319 227.662 90.1082 227.731 90.4458 227.869C90.7834 228.002 91.0711 228.193 91.3091 228.442C91.547 228.691 91.7297 228.993 91.8569 229.347H92.0063C92.1447 229.009 92.3494 228.716 92.6206 228.467C92.8918 228.212 93.21 228.016 93.5752 227.877C93.9404 227.734 94.3361 227.662 94.7622 227.662C95.3709 227.662 95.8939 227.786 96.3311 228.035C96.7738 228.284 97.1141 228.638 97.3521 229.098C97.5955 229.551 97.7173 230.094 97.7173 230.725V237H95.2935V231.331C95.2935 230.96 95.2381 230.653 95.1274 230.409C95.0168 230.166 94.848 229.983 94.6211 229.861C94.3997 229.734 94.1203 229.67 93.7827 229.67C93.4562 229.67 93.1712 229.745 92.9277 229.895C92.6898 230.044 92.5044 230.246 92.3716 230.5C92.2388 230.755 92.1724 231.048 92.1724 231.38V237H89.7485V231.223C89.7485 230.896 89.6877 230.617 89.5659 230.384C89.4497 230.152 89.2782 229.975 89.0513 229.853C88.8299 229.731 88.5615 229.67 88.2461 229.67C87.9307 229.67 87.6512 229.751 87.4077 229.911C87.1698 230.066 86.9816 230.282 86.8433 230.559C86.7049 230.83 86.6357 231.14 86.6357 231.488V237H84.2119ZM102.757 237.141C102.181 237.141 101.666 237.03 101.213 236.809C100.764 236.582 100.413 236.264 100.158 235.854C99.9039 235.439 99.7767 234.955 99.7767 234.402V234.385C99.7767 233.837 99.9122 233.367 100.183 232.974C100.46 232.581 100.861 232.274 101.387 232.053C101.918 231.826 102.563 231.69 103.321 231.646L106.724 231.438V232.916L103.686 233.115C103.166 233.143 102.779 233.254 102.524 233.447C102.27 233.641 102.142 233.904 102.142 234.236V234.252C102.142 234.601 102.275 234.875 102.541 235.074C102.806 235.273 103.15 235.373 103.57 235.373C103.946 235.373 104.281 235.298 104.575 235.149C104.868 235 105.1 234.798 105.272 234.543C105.443 234.283 105.529 233.992 105.529 233.671V230.758C105.529 230.359 105.396 230.055 105.131 229.845C104.871 229.629 104.492 229.521 103.993 229.521C103.556 229.521 103.199 229.596 102.923 229.745C102.651 229.889 102.469 230.097 102.375 230.368L102.358 230.401H100.117L100.125 230.326C100.192 229.789 100.394 229.322 100.731 228.923C101.074 228.525 101.534 228.215 102.109 227.994C102.69 227.772 103.363 227.662 104.126 227.662C104.934 227.662 105.62 227.786 106.185 228.035C106.749 228.279 107.178 228.633 107.471 229.098C107.77 229.557 107.92 230.11 107.92 230.758V237H105.529V235.788H105.38C105.225 236.07 105.017 236.314 104.757 236.519C104.503 236.718 104.204 236.873 103.861 236.983C103.523 237.089 103.155 237.141 102.757 237.141ZM110.494 240.03V227.861H112.918V229.272H113.067C113.227 228.945 113.438 228.666 113.698 228.434C113.963 228.201 114.273 228.024 114.628 227.902C114.982 227.775 115.375 227.711 115.806 227.711C116.57 227.711 117.228 227.902 117.782 228.284C118.335 228.666 118.761 229.208 119.06 229.911C119.365 230.608 119.517 231.444 119.517 232.418V232.435C119.517 233.414 119.367 234.255 119.068 234.958C118.77 235.661 118.344 236.2 117.79 236.577C117.237 236.953 116.575 237.141 115.806 237.141C115.386 237.141 114.996 237.077 114.636 236.95C114.282 236.817 113.969 236.632 113.698 236.394C113.432 236.156 113.222 235.871 113.067 235.539H112.918V240.03H110.494ZM114.976 235.132C115.408 235.132 115.776 235.024 116.08 234.809C116.39 234.593 116.628 234.283 116.794 233.879C116.966 233.475 117.051 232.993 117.051 232.435V232.418C117.051 231.859 116.966 231.378 116.794 230.974C116.628 230.57 116.39 230.26 116.08 230.044C115.776 229.828 115.408 229.72 114.976 229.72C114.55 229.72 114.179 229.828 113.864 230.044C113.554 230.26 113.313 230.57 113.142 230.974C112.976 231.372 112.893 231.854 112.893 232.418V232.435C112.893 232.988 112.978 233.469 113.15 233.879C113.322 234.283 113.562 234.593 113.872 234.809C114.188 235.024 114.556 235.132 114.976 235.132Z" fill="black"/>
</g>
<rect width="186.5" height="16.5" transform="translate(7 84.5)" fill="#ACACAC"/>
<rect x="7.15" y="85.65" width="170.7" height="14.2" rx="2.35" fill="#ACACAC"/>
<rect x="7.15" y="85.65" width="170.7" height="14.2" rx="2.35" stroke="#ACACAC" stroke-width="0.3"/>
<path d="M12.7268 96.3911C12.2896 96.3911 11.9078 96.3206 11.5813 96.1794C11.2576 96.0356 11.0002 95.8391 10.8093 95.5901C10.6212 95.3383 10.5119 95.0505 10.4814 94.7268L10.4773 94.6812H11.2244L11.2285 94.7268C11.2479 94.926 11.324 95.099 11.4568 95.2456C11.5924 95.3895 11.7722 95.5015 11.9963 95.5818C12.2232 95.662 12.4806 95.7021 12.7683 95.7021C13.0395 95.7021 13.2802 95.6593 13.4905 95.5735C13.7035 95.4849 13.8709 95.3632 13.9927 95.2083C14.1144 95.0533 14.1753 94.8748 14.1753 94.6729V94.6687C14.1753 94.4197 14.084 94.2108 13.9014 94.042C13.7188 93.8704 13.4213 93.739 13.009 93.6477L12.345 93.5024C11.7445 93.3696 11.3074 93.1649 11.0334 92.8882C10.7623 92.6087 10.6267 92.2518 10.6267 91.8174V91.8132C10.6295 91.4812 10.7194 91.1879 10.8965 90.9333C11.0763 90.6788 11.324 90.4796 11.6394 90.3357C11.9576 90.1918 12.3228 90.1199 12.7351 90.1199C13.1335 90.1199 13.4863 90.1918 13.7935 90.3357C14.1006 90.4768 14.3441 90.6677 14.5239 90.9084C14.7065 91.1492 14.8075 91.4189 14.8269 91.7178L14.8311 91.7759H14.084L14.0757 91.7219C14.048 91.5448 13.9761 91.3885 13.8599 91.2529C13.7437 91.1146 13.5887 91.0053 13.395 90.925C13.2013 90.8448 12.9744 90.8061 12.7144 90.8088C12.4653 90.8088 12.2412 90.8476 12.042 90.925C11.8428 91.0025 11.6837 91.1146 11.5647 91.2612C11.4485 91.4051 11.3904 91.5822 11.3904 91.7925V91.7966C11.3904 92.0346 11.4789 92.2352 11.656 92.3984C11.8331 92.5617 12.125 92.6876 12.5317 92.7761L13.1958 92.9255C13.6136 93.0168 13.9498 93.1358 14.2043 93.2825C14.4589 93.4291 14.6443 93.609 14.7605 93.822C14.8795 94.0323 14.939 94.2813 14.939 94.5691V94.5732C14.939 94.9468 14.8477 95.2691 14.665 95.5403C14.4824 95.8114 14.2251 96.0217 13.8931 96.1711C13.561 96.3178 13.1723 96.3911 12.7268 96.3911ZM17.7039 96.3289C17.2778 96.3289 16.9112 96.2348 16.6041 96.0466C16.2997 95.8585 16.0645 95.5929 15.8985 95.2498C15.7353 94.9039 15.6537 94.4972 15.6537 94.0295V94.0254C15.6537 93.5633 15.7353 93.158 15.8985 92.8093C16.0645 92.4607 16.2983 92.1882 16.5999 91.9917C16.9015 91.7952 17.2543 91.697 17.6583 91.697C18.065 91.697 18.4137 91.7911 18.7042 91.9792C18.9975 92.1674 19.2216 92.4303 19.3766 92.7678C19.5343 93.1026 19.6131 93.4928 19.6131 93.9382V94.2205H16.0272V93.6436H19.2437L18.8868 94.1707V93.8843C18.8868 93.5329 18.8342 93.2437 18.7291 93.0168C18.6239 92.79 18.4787 92.6212 18.2933 92.5105C18.1079 92.3971 17.8949 92.3403 17.6541 92.3403C17.4134 92.3403 17.1976 92.3998 17.0067 92.5188C16.8185 92.635 16.6691 92.8079 16.5584 93.0376C16.4478 93.2673 16.3924 93.5495 16.3924 93.8843V94.1707C16.3924 94.4889 16.4464 94.7614 16.5543 94.9883C16.6622 95.2124 16.8158 95.3853 17.015 95.5071C17.2142 95.6261 17.4494 95.6855 17.7205 95.6855C17.9225 95.6855 18.0982 95.6579 18.2476 95.6025C18.3971 95.5472 18.5202 95.4766 18.617 95.3909C18.7139 95.3051 18.7817 95.2179 18.8204 95.1294L18.837 95.092H19.5592L19.5509 95.1252C19.5121 95.2774 19.443 95.4255 19.3433 95.5693C19.2465 95.7104 19.1206 95.8391 18.9657 95.9553C18.8107 96.0688 18.6267 96.1601 18.4137 96.2292C18.2034 96.2957 17.9668 96.3289 17.7039 96.3289ZM21.7472 96.3289C21.465 96.3289 21.2105 96.2749 20.9836 96.167C20.7595 96.0591 20.581 95.9055 20.4482 95.7063C20.3181 95.5071 20.2531 95.2719 20.2531 95.0007V94.9924C20.2531 94.7268 20.3167 94.4999 20.444 94.3118C20.5713 94.1208 20.7567 93.9714 21.0002 93.8635C21.2437 93.7556 21.5383 93.692 21.8842 93.6726L23.5278 93.573V94.1499L21.9714 94.2495C21.631 94.2689 21.382 94.3394 21.2243 94.4612C21.0693 94.5829 20.9919 94.7545 20.9919 94.9758V94.9841C20.9919 95.211 21.0776 95.3881 21.2492 95.5154C21.4207 95.6399 21.6366 95.7021 21.8967 95.7021C22.1429 95.7021 22.3615 95.6537 22.5524 95.5569C22.7433 95.4573 22.8928 95.3231 23.0007 95.1543C23.1113 94.9855 23.1667 94.7946 23.1667 94.5815V93.187C23.1667 92.9103 23.0823 92.7 22.9135 92.5562C22.7475 92.4095 22.4971 92.3362 22.1623 92.3362C21.8939 92.3362 21.6739 92.3846 21.5024 92.4814C21.3308 92.5755 21.216 92.7097 21.1579 92.884L21.1537 92.8965H20.4316L20.4357 92.8716C20.4745 92.6364 20.5713 92.4316 20.7262 92.2573C20.884 92.0802 21.0873 91.9433 21.3364 91.8464C21.5854 91.7468 21.869 91.697 22.1872 91.697C22.5524 91.697 22.8609 91.7565 23.1127 91.8755C23.3673 91.9945 23.5596 92.166 23.6896 92.3901C23.8224 92.6115 23.8888 92.8771 23.8888 93.187V96.25H23.1667V95.5901H23.1003C23.0062 95.7478 22.8914 95.882 22.7558 95.9927C22.623 96.1034 22.4722 96.1877 22.3034 96.2458C22.1346 96.3012 21.9492 96.3289 21.7472 96.3289ZM24.9937 96.25V91.7759H25.7158V92.4399H25.7822C25.868 92.2048 26.0133 92.0221 26.218 91.8921C26.4228 91.762 26.676 91.697 26.9776 91.697C27.0467 91.697 27.1145 91.7012 27.1809 91.7095C27.2501 91.715 27.3027 91.7205 27.3386 91.7261V92.4275C27.2639 92.4137 27.1906 92.404 27.1187 92.3984C27.0495 92.3901 26.9748 92.386 26.8946 92.386C26.6649 92.386 26.4615 92.4316 26.2844 92.5229C26.1074 92.6143 25.9676 92.7415 25.8653 92.9048C25.7656 93.068 25.7158 93.259 25.7158 93.4775V96.25H24.9937ZM29.7218 96.3289C29.304 96.3289 28.9415 96.2334 28.6344 96.0425C28.3273 95.8516 28.0893 95.5818 27.9205 95.2332C27.7517 94.8845 27.6673 94.4736 27.6673 94.0005V93.9922C27.6673 93.5273 27.7504 93.1234 27.9164 92.7803C28.0851 92.4372 28.3231 92.1715 28.6302 91.9834C28.9374 91.7925 29.2998 91.697 29.7176 91.697C30.0801 91.697 30.3928 91.7607 30.6556 91.8879C30.9185 92.0152 31.1288 92.1868 31.2865 92.4026C31.4442 92.6156 31.5452 92.855 31.5895 93.1206L31.5936 93.1455H30.8756L30.8714 93.1331C30.8161 92.9117 30.6902 92.7236 30.4938 92.5686C30.2973 92.4137 30.0386 92.3362 29.7176 92.3362C29.4492 92.3362 29.2168 92.404 29.0204 92.5396C28.8239 92.6751 28.6717 92.8674 28.5638 93.1165C28.4587 93.3627 28.4061 93.6546 28.4061 93.9922V94.0005C28.4061 94.3436 28.4601 94.6424 28.568 94.897C28.6759 95.1488 28.8281 95.3438 29.0245 95.4822C29.221 95.6205 29.452 95.6897 29.7176 95.6897C30.0192 95.6897 30.2655 95.6247 30.4564 95.4946C30.6473 95.3646 30.7843 95.175 30.8673 94.926L30.8756 94.9011L31.5895 94.897L31.5812 94.9426C31.5203 95.211 31.4124 95.4504 31.2574 95.6606C31.1025 95.8682 30.8977 96.0314 30.6432 96.1504C30.3886 96.2694 30.0815 96.3289 29.7218 96.3289ZM32.4743 96.25V89.9995H33.1965V92.4482H33.2629C33.3763 92.2103 33.5396 92.0263 33.7526 91.8962C33.9657 91.7634 34.2368 91.697 34.5661 91.697C34.9009 91.697 35.1845 91.762 35.4169 91.8921C35.6494 92.0194 35.8264 92.2061 35.9482 92.4524C36.0699 92.6986 36.1308 92.9989 36.1308 93.353V96.25H35.4086V93.5273C35.4086 93.1234 35.3229 92.8245 35.1513 92.6309C34.9825 92.4344 34.7197 92.3362 34.3627 92.3362C34.1248 92.3362 33.9187 92.3874 33.7443 92.4897C33.57 92.5921 33.4344 92.7374 33.3376 92.9255C33.2435 93.1137 33.1965 93.3392 33.1965 93.6021V96.25H32.4743ZM39.6976 96.25V92.3735H38.9547V91.7759H39.6976V91.2778C39.6976 90.979 39.7461 90.7327 39.8429 90.5391C39.9425 90.3426 40.0892 90.1973 40.2828 90.1033C40.4765 90.0064 40.7145 89.958 40.9967 89.958C41.0853 89.958 41.1683 89.9622 41.2457 89.9705C41.326 89.976 41.4034 89.9857 41.4782 89.9995V90.5764C41.4339 90.5681 41.3827 90.5626 41.3246 90.5598C41.2665 90.557 41.2056 90.5557 41.142 90.5557C40.8846 90.5557 40.6993 90.6179 40.5858 90.7424C40.4751 90.8669 40.4198 91.0523 40.4198 91.2986V91.7759H41.4367V92.3735H40.4198V96.25H39.6976ZM43.9194 96.3289C43.4961 96.3289 43.1294 96.2362 42.8196 96.0508C42.5124 95.8626 42.2745 95.5956 42.1057 95.2498C41.9397 94.9039 41.8567 94.493 41.8567 94.0171V94.0088C41.8567 93.5301 41.9397 93.1178 42.1057 92.772C42.2745 92.4261 42.5124 92.1605 42.8196 91.9751C43.1294 91.7897 43.4961 91.697 43.9194 91.697C44.3455 91.697 44.7121 91.7897 45.0193 91.9751C45.3264 92.1605 45.563 92.4261 45.729 92.772C45.8978 93.1178 45.9821 93.5301 45.9821 94.0088V94.0171C45.9821 94.493 45.8978 94.9039 45.729 95.2498C45.563 95.5956 45.3264 95.8626 45.0193 96.0508C44.7121 96.2362 44.3455 96.3289 43.9194 96.3289ZM43.9194 95.6897C44.2016 95.6897 44.441 95.6233 44.6374 95.4905C44.8339 95.3577 44.9833 95.1667 45.0857 94.9177C45.1908 94.6687 45.2434 94.3685 45.2434 94.0171V94.0088C45.2434 93.6546 45.1908 93.353 45.0857 93.104C44.9833 92.855 44.8339 92.6654 44.6374 92.5354C44.441 92.4026 44.2016 92.3362 43.9194 92.3362C43.6372 92.3362 43.3978 92.4026 43.2014 92.5354C43.0049 92.6654 42.8541 92.855 42.749 93.104C42.6466 93.353 42.5954 93.6546 42.5954 94.0088V94.0171C42.5954 94.3685 42.6466 94.6687 42.749 94.9177C42.8541 95.1667 43.0049 95.3577 43.2014 95.4905C43.3978 95.6233 43.6372 95.6897 43.9194 95.6897ZM46.8878 96.25V91.7759H47.6099V92.4399H47.6763C47.7621 92.2048 47.9074 92.0221 48.1121 91.8921C48.3169 91.762 48.57 91.697 48.8716 91.697C48.9408 91.697 49.0086 91.7012 49.075 91.7095C49.1442 91.715 49.1968 91.7205 49.2327 91.7261V92.4275C49.158 92.4137 49.0847 92.404 49.0128 92.3984C48.9436 92.3901 48.8689 92.386 48.7886 92.386C48.559 92.386 48.3556 92.4316 48.1785 92.5229C48.0014 92.6143 47.8617 92.7415 47.7593 92.9048C47.6597 93.068 47.6099 93.259 47.6099 93.4775V96.25H46.8878ZM52.0857 97.7441V91.7759H52.8078V92.4897H52.8743C52.9656 92.3237 53.0804 92.1826 53.2187 92.0664C53.3571 91.9474 53.5148 91.8561 53.6919 91.7925C53.869 91.7288 54.0613 91.697 54.2688 91.697C54.6479 91.697 54.9771 91.7939 55.2566 91.9875C55.5388 92.1785 55.7574 92.4469 55.9123 92.7927C56.0673 93.1386 56.1448 93.5439 56.1448 94.0088V94.0171C56.1448 94.4847 56.0673 94.8914 55.9123 95.2373C55.7574 95.5832 55.5388 95.8516 55.2566 96.0425C54.9771 96.2334 54.6479 96.3289 54.2688 96.3289C54.064 96.3289 53.8703 96.297 53.6877 96.2334C53.5079 96.167 53.3474 96.0757 53.2063 95.9595C53.0679 95.8433 52.9573 95.7049 52.8743 95.5444H52.8078V97.7441H52.0857ZM54.1028 95.6897C54.3767 95.6897 54.6105 95.6233 54.8042 95.4905C54.9979 95.3549 55.1459 95.1626 55.2483 94.9136C55.3534 94.6618 55.406 94.363 55.406 94.0171V94.0088C55.406 93.6602 55.3534 93.3613 55.2483 93.1123C55.1459 92.8633 54.9979 92.6724 54.8042 92.5396C54.6105 92.404 54.3767 92.3362 54.1028 92.3362C53.8316 92.3362 53.5978 92.404 53.4014 92.5396C53.2049 92.6751 53.0541 92.8674 52.949 93.1165C52.8438 93.3655 52.7912 93.6629 52.7912 94.0088V94.0171C52.7912 94.3602 52.8438 94.6576 52.949 94.9094C53.0541 95.1584 53.2049 95.3507 53.4014 95.4863C53.5978 95.6219 53.8316 95.6897 54.1028 95.6897ZM58.2872 96.3289C58.005 96.3289 57.7504 96.2749 57.5235 96.167C57.2994 96.0591 57.1209 95.9055 56.9881 95.7063C56.8581 95.5071 56.793 95.2719 56.793 95.0007V94.9924C56.793 94.7268 56.8567 94.4999 56.984 94.3118C57.1112 94.1208 57.2966 93.9714 57.5401 93.8635C57.7836 93.7556 58.0783 93.692 58.4241 93.6726L60.0677 93.573V94.1499L58.5113 94.2495C58.171 94.2689 57.922 94.3394 57.7642 94.4612C57.6093 94.5829 57.5318 94.7545 57.5318 94.9758V94.9841C57.5318 95.211 57.6176 95.3881 57.7891 95.5154C57.9607 95.6399 58.1765 95.7021 58.4366 95.7021C58.6829 95.7021 58.9014 95.6537 59.0924 95.5569C59.2833 95.4573 59.4327 95.3231 59.5406 95.1543C59.6513 94.9855 59.7066 94.7946 59.7066 94.5815V93.187C59.7066 92.9103 59.6222 92.7 59.4534 92.5562C59.2874 92.4095 59.037 92.3362 58.7022 92.3362C58.4338 92.3362 58.2139 92.3846 58.0423 92.4814C57.8708 92.5755 57.7559 92.7097 57.6978 92.884L57.6937 92.8965H56.9715L56.9757 92.8716C57.0144 92.6364 57.1112 92.4316 57.2662 92.2573C57.4239 92.0802 57.6273 91.9433 57.8763 91.8464C58.1253 91.7468 58.4089 91.697 58.7271 91.697C59.0924 91.697 59.4009 91.7565 59.6527 91.8755C59.9072 91.9945 60.0995 92.166 60.2296 92.3901C60.3624 92.6115 60.4288 92.8771 60.4288 93.187V96.25H59.7066V95.5901H59.6402C59.5461 95.7478 59.4313 95.882 59.2957 95.9927C59.1629 96.1034 59.0121 96.1877 58.8433 96.2458C58.6746 96.3012 58.4892 96.3289 58.2872 96.3289ZM61.5336 96.25V91.7759H62.2558V92.4399H62.3222C62.408 92.2048 62.5532 92.0221 62.758 91.8921C62.9627 91.762 63.2159 91.697 63.5175 91.697C63.5867 91.697 63.6545 91.7012 63.7209 91.7095C63.79 91.715 63.8426 91.7205 63.8786 91.7261V92.4275C63.8039 92.4137 63.7306 92.404 63.6586 92.3984C63.5894 92.3901 63.5147 92.386 63.4345 92.386C63.2048 92.386 63.0015 92.4316 62.8244 92.5229C62.6473 92.6143 62.5076 92.7415 62.4052 92.9048C62.3056 93.068 62.2558 93.259 62.2558 93.4775V96.25H61.5336ZM64.5974 96.25V89.9995H65.3196V96.25H64.5974ZM67.4155 96.25L65.6682 94.0586L66.1995 93.5979L68.3245 96.25H67.4155ZM65.2283 94.6396L65.1951 93.7307H65.386L67.3201 91.7759H68.1958L66.0708 93.8262L65.8965 93.9963L65.2283 94.6396ZM68.9728 96.25V91.7759H69.6949V96.25H68.9728ZM69.338 90.9126C69.2024 90.9126 69.0848 90.8642 68.9852 90.7673C68.8884 90.6677 68.8399 90.5501 68.8399 90.4146C68.8399 90.2762 68.8884 90.1586 68.9852 90.0618C69.0848 89.9649 69.2024 89.9165 69.338 89.9165C69.4763 89.9165 69.5939 89.9649 69.6908 90.0618C69.7876 90.1586 69.836 90.2762 69.836 90.4146C69.836 90.5501 69.7876 90.6677 69.6908 90.7673C69.5939 90.8642 69.4763 90.9126 69.338 90.9126ZM70.8413 96.25V91.7759H71.5634V92.4482H71.6298C71.7433 92.2103 71.9065 92.0263 72.1196 91.8962C72.3326 91.7634 72.6038 91.697 72.933 91.697C73.4366 91.697 73.8226 91.8409 74.091 92.1287C74.3622 92.4137 74.4977 92.8218 74.4977 93.353V96.25H73.7756V93.5273C73.7756 93.1234 73.6898 92.8245 73.5183 92.6309C73.3495 92.4344 73.0866 92.3362 72.7297 92.3362C72.4917 92.3362 72.2856 92.3874 72.1113 92.4897C71.937 92.5921 71.8014 92.7374 71.7045 92.9255C71.6105 93.1137 71.5634 93.3392 71.5634 93.6021V96.25H70.8413ZM77.4329 97.8271C77.0732 97.8271 76.7591 97.776 76.4908 97.6736C76.2224 97.574 76.0079 97.4315 75.8474 97.2461C75.6897 97.0635 75.5915 96.8504 75.5528 96.6069L75.5611 96.6028H76.3081L76.3123 96.6069C76.351 96.7757 76.4672 96.9141 76.6609 97.022C76.8546 97.1326 77.1119 97.188 77.4329 97.188C77.8341 97.188 78.1468 97.0967 78.3709 96.9141C78.5978 96.7342 78.7112 96.4797 78.7112 96.1504V95.2456H78.6448C78.5507 95.4089 78.4331 95.5486 78.292 95.6648C78.1509 95.781 77.9918 95.8695 77.8147 95.9304C77.6376 95.9885 77.4467 96.0176 77.242 96.0176C76.8574 96.0176 76.524 95.9263 76.2417 95.7437C75.9623 95.5583 75.7464 95.3037 75.5943 94.98C75.4421 94.6562 75.366 94.2855 75.366 93.8677V93.8594C75.366 93.4416 75.4421 93.0708 75.5943 92.7471C75.7492 92.4206 75.9678 92.1646 76.25 91.9792C76.5323 91.7911 76.8684 91.697 77.2586 91.697C77.4689 91.697 77.6625 91.7302 77.8396 91.7966C78.0167 91.863 78.173 91.9571 78.3086 92.0789C78.447 92.2006 78.5618 92.3459 78.6531 92.5146H78.7029V91.7759H79.4251V96.1877C79.4251 96.5198 79.3435 96.8089 79.1802 97.0552C79.0197 97.3014 78.7901 97.491 78.4912 97.6238C78.1924 97.7594 77.8396 97.8271 77.4329 97.8271ZM77.3997 95.3784C77.6764 95.3784 77.913 95.3148 78.1094 95.1875C78.3086 95.0575 78.4608 94.879 78.5659 94.6521C78.6739 94.4252 78.7278 94.1637 78.7278 93.8677V93.8594C78.7278 93.5633 78.6739 93.3005 78.5659 93.0708C78.4608 92.8411 78.3086 92.6613 78.1094 92.5312C77.913 92.4012 77.6764 92.3362 77.3997 92.3362C77.123 92.3362 76.8878 92.4012 76.6941 92.5312C76.5032 92.6613 76.3566 92.8411 76.2542 93.0708C76.1546 93.3005 76.1048 93.5633 76.1048 93.8594V93.8677C76.1048 94.1637 76.1546 94.4252 76.2542 94.6521C76.3566 94.879 76.5032 95.0575 76.6941 95.1875C76.8878 95.3148 77.123 95.3784 77.3997 95.3784ZM82.0904 96.3289C81.7584 96.3289 81.4651 96.2791 81.2106 96.1794C80.956 96.0771 80.7513 95.9346 80.5963 95.752C80.4441 95.5693 80.3542 95.3549 80.3265 95.1086H81.0653C81.1262 95.294 81.2452 95.4434 81.4222 95.5569C81.5993 95.6703 81.8304 95.7271 82.1153 95.7271C82.3173 95.7271 82.4944 95.698 82.6466 95.6399C82.8015 95.579 82.9233 95.4974 83.0118 95.395C83.1004 95.2899 83.1446 95.1695 83.1446 95.0339V95.0256C83.1446 94.8735 83.0838 94.7448 82.962 94.6396C82.8403 94.5317 82.6411 94.4446 82.3644 94.3782L81.6713 94.2122C81.3918 94.1458 81.1621 94.06 80.9823 93.9548C80.8024 93.8469 80.6696 93.7155 80.5839 93.5605C80.4981 93.4028 80.4552 93.2174 80.4552 93.0044V93.0002C80.4552 92.7512 80.5271 92.5285 80.671 92.332C80.8177 92.1356 81.0169 91.9806 81.2687 91.8672C81.5205 91.7537 81.8041 91.697 82.1195 91.697C82.4322 91.697 82.7089 91.7468 82.9496 91.8464C83.1931 91.9433 83.3881 92.0816 83.5348 92.2615C83.6842 92.4413 83.7755 92.653 83.8087 92.8965H83.099C83.052 92.7194 82.944 92.5755 82.7753 92.4648C82.6065 92.3542 82.3865 92.2988 82.1153 92.2988C81.9383 92.2988 81.7806 92.3279 81.6422 92.386C81.5039 92.4413 81.3946 92.5188 81.3143 92.6184C81.2341 92.718 81.194 92.8342 81.194 92.967V92.9753C81.194 93.075 81.2202 93.1635 81.2728 93.241C81.3254 93.3184 81.407 93.3862 81.5177 93.4443C81.6284 93.5024 81.7709 93.5536 81.9452 93.5979L82.6341 93.7639C83.0547 93.8663 83.3674 94.0129 83.5721 94.2039C83.7797 94.3948 83.8834 94.6507 83.8834 94.9717V94.98C83.8834 95.2456 83.8046 95.4808 83.6468 95.6855C83.4891 95.8875 83.2747 96.0452 83.0035 96.1587C82.7351 96.2721 82.4308 96.3289 82.0904 96.3289Z" fill="#ACACAC"/>
<g clip-path="url(#clip3_220_1066)">
<g filter="url(#filter0_b_220_1066)">
<rect width="201" height="43" fill="white" fill-opacity="0.75" style="mix-blend-mode:hard-light"/>
</g>
</g>
<path d="M30.8833 13.3616C31.2043 13.3616 31.5086 13.4211 31.7964 13.54C32.0841 13.6562 32.3387 13.8389 32.5601 14.0879C32.7842 14.3341 32.9599 14.651 33.0872 15.0383C33.2144 15.4229 33.2781 15.8864 33.2781 16.4287V16.437C33.2781 17.1094 33.1812 17.6849 32.9875 18.1636C32.7939 18.6423 32.5158 19.0103 32.1533 19.2676C31.7936 19.5221 31.3634 19.6494 30.8625 19.6494C30.4945 19.6494 30.1625 19.583 29.8665 19.4502C29.5732 19.3146 29.3297 19.1292 29.136 18.894C28.9451 18.6561 28.8164 18.3849 28.75 18.0806L28.7417 18.0349H29.7917L29.8083 18.0764C29.8609 18.2148 29.9356 18.3365 30.0325 18.4417C30.1321 18.5468 30.2511 18.6284 30.3894 18.6865C30.5305 18.7419 30.6882 18.7695 30.8625 18.7695C31.178 18.7695 31.4353 18.6768 31.6345 18.4915C31.8365 18.3033 31.9873 18.0529 32.0869 17.7402C32.1893 17.4248 32.2474 17.0762 32.2612 16.6943C32.264 16.6528 32.2654 16.6127 32.2654 16.574C32.2654 16.5325 32.2654 16.4924 32.2654 16.4536L32.0786 15.4534C32.0786 15.2265 32.026 15.0203 31.9209 14.835C31.8158 14.6496 31.6733 14.5029 31.4934 14.395C31.3163 14.2871 31.1157 14.2332 30.8916 14.2332C30.6758 14.2332 30.4779 14.2857 30.2981 14.3909C30.1182 14.496 29.9744 14.6399 29.8665 14.8225C29.7585 15.0024 29.7046 15.2043 29.7046 15.4285V15.4368C29.7046 15.6692 29.7558 15.8753 29.8582 16.0552C29.9605 16.2323 30.1003 16.372 30.2773 16.4744C30.4544 16.5767 30.6564 16.6279 30.8833 16.6279C31.1102 16.6279 31.3136 16.5781 31.4934 16.4785C31.6733 16.3789 31.8158 16.2406 31.9209 16.0635C32.026 15.8864 32.0786 15.6858 32.0786 15.4617V15.4534H32.3276V16.5574H32.1824C32.1104 16.7151 32.0039 16.8617 31.8628 16.9973C31.7217 17.1329 31.5474 17.2422 31.3398 17.3252C31.1351 17.4082 30.8944 17.4497 30.6177 17.4497C30.2358 17.4497 29.8983 17.3639 29.605 17.1924C29.3117 17.0208 29.0806 16.7856 28.9119 16.4868C28.7458 16.188 28.6628 15.8504 28.6628 15.4741V15.4658C28.6628 15.0591 28.7569 14.698 28.9451 14.3826C29.136 14.0644 29.3988 13.8153 29.7336 13.6355C30.0712 13.4529 30.4544 13.3616 30.8833 13.3616ZM35.1624 18.6948C34.9742 18.6948 34.8165 18.6326 34.6892 18.5081C34.5647 18.3808 34.5024 18.2258 34.5024 18.0432C34.5024 17.8578 34.5647 17.7029 34.6892 17.5784C34.8165 17.4511 34.9742 17.3875 35.1624 17.3875C35.3533 17.3875 35.511 17.4511 35.6355 17.5784C35.76 17.7029 35.8223 17.8578 35.8223 18.0432C35.8223 18.2258 35.76 18.3808 35.6355 18.5081C35.511 18.6326 35.3533 18.6948 35.1624 18.6948ZM35.1624 15.6152C34.9742 15.6152 34.8165 15.553 34.6892 15.4285C34.5647 15.3012 34.5024 15.1462 34.5024 14.9636C34.5024 14.7782 34.5647 14.6233 34.6892 14.4988C34.8165 14.3715 34.9742 14.3079 35.1624 14.3079C35.3533 14.3079 35.511 14.3715 35.6355 14.4988C35.76 14.6233 35.8223 14.7782 35.8223 14.9636C35.8223 15.1462 35.76 15.3012 35.6355 15.4285C35.511 15.553 35.3533 15.6152 35.1624 15.6152ZM39.9519 19.5V18.3503H37.0217V17.4746C37.1794 17.2062 37.3372 16.9364 37.4949 16.6653C37.6554 16.3941 37.8172 16.1243 37.9805 15.856C38.1465 15.5848 38.3111 15.3178 38.4744 15.0549C38.6404 14.7893 38.805 14.5278 38.9683 14.2705C39.1343 14.0104 39.3003 13.7572 39.4663 13.511H40.9729V17.4663H41.7822V18.3503H40.9729V19.5H39.9519ZM38.0178 17.4912H39.9685V14.366H39.9062C39.7845 14.5541 39.6586 14.7478 39.5286 14.947C39.4013 15.1462 39.2726 15.3496 39.1426 15.5571C39.0125 15.7646 38.8839 15.9736 38.7566 16.1838C38.6293 16.3914 38.5034 16.6003 38.3789 16.8105C38.2544 17.0181 38.134 17.2242 38.0178 17.429V17.4912ZM44.26 19.5V14.5652H44.1853L42.6953 15.6152V14.6108L44.26 13.511H45.3267V19.5H44.26Z" fill="#1E2235"/>
<path fill-rule="evenodd" clip-rule="evenodd" d="M153.932 13.5165C153.932 13.2 153.693 12.9434 153.399 12.9434H152.865C152.571 12.9434 152.332 13.2 152.332 13.5165V18.4835C152.332 18.8 152.571 19.0566 152.865 19.0566H153.399C153.693 19.0566 153.932 18.8 153.932 18.4835V13.5165ZM150.215 14.166H150.748C151.043 14.166 151.282 14.4288 151.282 14.7529V18.4697C151.282 18.7938 151.043 19.0566 150.748 19.0566H150.215C149.92 19.0566 149.682 18.7938 149.682 18.4697V14.7529C149.682 14.4288 149.92 14.166 150.215 14.166ZM148.049 15.4905H147.516C147.221 15.4905 146.982 15.7566 146.982 16.0849V18.4622C146.982 18.7905 147.221 19.0566 147.516 19.0566H148.049C148.344 19.0566 148.582 18.7905 148.582 18.4622V16.0849C148.582 15.7566 148.344 15.4905 148.049 15.4905ZM145.399 16.7132H144.865C144.571 16.7132 144.332 16.9755 144.332 17.299V18.4707C144.332 18.7943 144.571 19.0566 144.865 19.0566H145.399C145.693 19.0566 145.932 18.7943 145.932 18.4707V17.299C145.932 16.9755 145.693 16.7132 145.399 16.7132Z" fill="#1E2235"/>
<path fill-rule="evenodd" clip-rule="evenodd" d="M161.718 14.1511C162.962 14.1512 164.158 14.6122 165.059 15.4389C165.127 15.5028 165.235 15.502 165.302 15.4371L165.951 14.8054C165.985 14.7725 166.004 14.728 166.003 14.6816C166.003 14.6353 165.984 14.591 165.95 14.5585C163.584 12.3711 159.852 12.3711 157.487 14.5585C157.452 14.591 157.433 14.6353 157.433 14.6816C157.432 14.7279 157.451 14.7725 157.485 14.8054L158.134 15.4371C158.201 15.5021 158.309 15.5029 158.377 15.4389C159.278 14.6121 160.475 14.1511 161.718 14.1511ZM161.717 16.2612C162.395 16.2612 163.05 16.5171 163.553 16.9791C163.621 17.0447 163.728 17.0433 163.794 16.9759L164.438 16.3163C164.472 16.2817 164.491 16.2347 164.49 16.186C164.49 16.1372 164.47 16.0906 164.435 16.0568C162.903 14.6113 160.531 14.6113 158.999 16.0568C158.965 16.0906 158.945 16.1372 158.944 16.186C158.944 16.2348 158.963 16.2817 158.997 16.3163L159.64 16.9759C159.707 17.0433 159.814 17.0447 159.882 16.9791C160.384 16.5174 161.038 16.2615 161.717 16.2612ZM162.979 17.658C162.98 17.7107 162.961 17.7615 162.928 17.7984L161.839 19.0258C161.807 19.0618 161.764 19.0821 161.718 19.0821C161.673 19.0821 161.63 19.0618 161.598 19.0258L160.509 17.7984C160.476 17.7615 160.457 17.7107 160.458 17.658C160.459 17.6053 160.479 17.5554 160.514 17.5201C161.209 16.8632 162.227 16.8632 162.922 17.5201C162.957 17.5555 162.978 17.6053 162.979 17.658Z" fill="#1E2235"/>
<rect opacity="0.35" x="169.753" y="13" width="12" height="6" rx="1.9" stroke="#1E2235" stroke-width="0.5"/>
<path opacity="0.4" d="M182.503 15.1406V17.1784C182.905 17.0058 183.167 16.6043 183.167 16.1595C183.167 15.7147 182.905 15.3132 182.503 15.1406" fill="#1E2235"/>
<rect x="170.503" y="13.75" width="10.5" height="4.5" rx="1.25" fill="#1E2235"/>
<rect width="201" height="26.5" transform="translate(0 49)" fill="#CCCCCC"/>
<g clip-path="url(#clip4_220_1066)">
<mask id="path-15-outside-1_220_1066" maskUnits="userSpaceOnUse" x="0" y="389" width="201" height="48" fill="black">
<rect fill="white" y="389" width="201" height="48"/>
<path d="M0 390H201V437H0V390Z"/>
</mask>
<g filter="url(#filter1_b_220_1066)">
<rect width="201" height="47" transform="translate(0 390)" fill="white" fill-opacity="0.7"/>
<rect width="201" height="47" transform="translate(0 390)" fill="#333333" style="mix-blend-mode:color-dodge"/>
</g>
</g>
<path d="M0 390.167H201V389.833H0V390.167Z" fill="black" fill-opacity="0.3" mask="url(#path-15-outside-1_220_1066)"/>
<path d="M18.4795 412.5V408.977H19.0264V410.466H20.833V408.977H21.3823V412.5H20.833V410.94H19.0264V412.5H18.4795ZM23.3306 412.551C23.0718 412.551 22.848 412.496 22.6592 412.385C22.472 412.275 22.328 412.117 22.2271 411.912C22.1261 411.705 22.0757 411.46 22.0757 411.177V411.172C22.0757 410.887 22.1261 410.642 22.2271 410.437C22.3296 410.232 22.4744 410.074 22.6616 409.963C22.8504 409.853 23.0734 409.797 23.3306 409.797C23.5894 409.797 23.8123 409.853 23.9995 409.963C24.1867 410.072 24.3307 410.23 24.4316 410.437C24.5342 410.642 24.5854 410.887 24.5854 411.172V411.177C24.5854 411.46 24.5342 411.705 24.4316 411.912C24.3307 412.117 24.1867 412.275 23.9995 412.385C23.814 412.496 23.591 412.551 23.3306 412.551ZM23.3306 412.107C23.4819 412.107 23.6105 412.07 23.7163 411.997C23.8221 411.922 23.9027 411.816 23.958 411.677C24.0133 411.539 24.041 411.372 24.041 411.177V411.172C24.041 410.975 24.0133 410.807 23.958 410.669C23.9027 410.531 23.8221 410.425 23.7163 410.352C23.6105 410.277 23.4819 410.239 23.3306 410.239C23.1792 410.239 23.0506 410.277 22.9448 410.352C22.839 410.425 22.7576 410.531 22.7007 410.669C22.6453 410.807 22.6177 410.975 22.6177 411.172V411.177C22.6177 411.372 22.6453 411.539 22.7007 411.677C22.7576 411.816 22.839 411.922 22.9448 411.997C23.0506 412.07 23.1792 412.107 23.3306 412.107ZM25.2153 412.5V409.849H25.7451V410.256H25.7866C25.8452 410.11 25.9364 409.997 26.0601 409.917C26.1854 409.837 26.3351 409.797 26.5093 409.797C26.6297 409.797 26.738 409.817 26.834 409.856C26.93 409.895 27.0122 409.95 27.0806 410.022C27.1506 410.092 27.2051 410.175 27.2441 410.271H27.2856C27.3296 410.175 27.3914 410.092 27.4712 410.022C27.5509 409.95 27.6437 409.895 27.7495 409.856C27.8569 409.817 27.9709 409.797 28.0913 409.797C28.2703 409.797 28.4233 409.832 28.5503 409.902C28.6772 409.971 28.7741 410.07 28.8408 410.2C28.9076 410.33 28.9409 410.487 28.9409 410.671V412.5H28.4111V410.798C28.4111 410.676 28.3924 410.575 28.355 410.496C28.3175 410.414 28.2606 410.353 28.1841 410.312C28.1092 410.272 28.0148 410.251 27.9009 410.251C27.7886 410.251 27.6901 410.278 27.6055 410.33C27.5225 410.38 27.4574 410.448 27.4102 410.535C27.3646 410.619 27.3418 410.715 27.3418 410.823V412.5H26.812V410.745C26.812 410.644 26.7909 410.557 26.7485 410.483C26.7078 410.409 26.6493 410.352 26.5728 410.312C26.4963 410.272 26.4059 410.251 26.3018 410.251C26.196 410.251 26.1007 410.279 26.0161 410.334C25.9331 410.39 25.8672 410.465 25.8184 410.559C25.7695 410.652 25.7451 410.756 25.7451 410.872V412.5H25.2153ZM30.7964 412.551C30.5376 412.551 30.3154 412.496 30.1299 412.385C29.9443 412.273 29.8011 412.114 29.7002 411.909C29.6009 411.704 29.5513 411.462 29.5513 411.182V411.179C29.5513 410.903 29.6009 410.661 29.7002 410.454C29.8011 410.247 29.9427 410.086 30.125 409.971C30.3089 409.855 30.5238 409.797 30.7695 409.797C31.0169 409.797 31.2293 409.853 31.4067 409.963C31.5858 410.074 31.7233 410.229 31.8193 410.43C31.9154 410.628 31.9634 410.861 31.9634 411.128V411.313H29.8198V410.935H31.6997L31.4458 411.287V411.074C31.4458 410.885 31.4165 410.729 31.3579 410.605C31.3009 410.48 31.222 410.387 31.1211 410.325C31.0202 410.263 30.9038 410.232 30.772 410.232C30.6401 410.232 30.5221 410.264 30.418 410.33C30.3154 410.393 30.234 410.487 30.1738 410.613C30.1152 410.738 30.0859 410.892 30.0859 411.074V411.287C30.0859 411.461 30.1152 411.61 30.1738 411.733C30.2324 411.857 30.3154 411.951 30.4229 412.017C30.5319 412.082 30.6605 412.114 30.8086 412.114C30.9225 412.114 31.0202 412.099 31.1016 412.068C31.1846 412.035 31.2521 411.995 31.3042 411.948C31.3579 411.901 31.3945 411.855 31.4141 411.809L31.4238 411.79H31.9365L31.9316 411.812C31.9089 411.899 31.869 411.987 31.812 412.075C31.755 412.161 31.6794 412.24 31.585 412.312C31.4922 412.384 31.3799 412.441 31.248 412.485C31.1178 412.529 30.9673 412.551 30.7964 412.551Z" fill="#999999"/>
<path d="M26.5928 404.402V400.671C26.5928 400.545 26.5547 400.444 26.4785 400.368C26.4023 400.292 26.3013 400.253 26.1753 400.253H24.0703C23.9443 400.253 23.8418 400.292 23.7627 400.368C23.6865 400.444 23.6484 400.545 23.6484 400.671V404.402H26.5928ZM20.0977 404.129V399.59L24.7734 395.67C24.8848 395.576 25.002 395.529 25.125 395.529C25.248 395.526 25.3667 395.573 25.481 395.67L30.1611 399.594V404.129C30.1611 404.519 30.0469 404.824 29.8184 405.043C29.5898 405.263 29.2764 405.373 28.8779 405.373H21.3765C20.978 405.373 20.6646 405.263 20.436 405.043C20.2104 404.824 20.0977 404.519 20.0977 404.129ZM18.3442 398.997C18.3442 398.841 18.4102 398.709 18.542 398.601L24.3955 393.688C24.6211 393.495 24.8657 393.398 25.1294 393.398C25.396 393.398 25.6421 393.495 25.8677 393.688L31.708 398.601C31.8369 398.709 31.9014 398.846 31.9014 399.01C31.9014 399.15 31.853 399.262 31.7563 399.344C31.6626 399.426 31.5439 399.467 31.4004 399.467C31.3242 399.467 31.2524 399.449 31.1851 399.414C31.1177 399.379 31.0532 399.336 30.9917 399.287L25.3755 394.567C25.2964 394.497 25.2144 394.463 25.1294 394.466C25.0444 394.466 24.9639 394.5 24.8877 394.567L19.2583 399.287C19.1968 399.336 19.1323 399.379 19.0649 399.414C19.0005 399.449 18.9302 399.467 18.854 399.467C18.6958 399.467 18.5713 399.421 18.4805 399.331C18.3896 399.237 18.3442 399.125 18.3442 398.997ZM28.7065 396.43V394.958C28.7065 394.841 28.7432 394.749 28.8164 394.681C28.8896 394.614 28.9834 394.58 29.0977 394.58H29.792C29.9062 394.58 29.9985 394.614 30.0688 394.681C30.1392 394.749 30.1743 394.841 30.1743 394.958V397.669L28.7065 396.43Z" fill="#999999"/>
<path d="M68.605 412.585C68.3397 412.585 68.1086 412.544 67.9116 412.461C67.7147 412.376 67.5592 412.259 67.4453 412.109C67.3314 411.96 67.2663 411.786 67.25 411.589L67.2476 411.558H67.7871L67.7896 411.584C67.8009 411.69 67.8424 411.782 67.9141 411.86C67.9873 411.938 68.085 412 68.207 412.043C68.3307 412.087 68.4715 412.109 68.6294 412.109C68.7775 412.109 68.9093 412.086 69.0249 412.039C69.1405 411.991 69.2308 411.926 69.2959 411.843C69.3626 411.76 69.396 411.665 69.396 411.558V411.555C69.396 411.42 69.3447 411.308 69.2422 411.218C69.1396 411.129 68.972 411.059 68.7393 411.008L68.3535 410.928C67.9971 410.851 67.7375 410.73 67.5747 410.564C67.4119 410.396 67.3306 410.182 67.3306 409.922V409.919C67.3322 409.716 67.3867 409.537 67.4941 409.382C67.6032 409.228 67.7537 409.107 67.9458 409.021C68.1379 408.935 68.3584 408.892 68.6074 408.892C68.8564 408.892 69.0737 408.935 69.2593 409.021C69.4465 409.106 69.5938 409.221 69.7012 409.368C69.8102 409.514 69.8713 409.679 69.8843 409.863L69.8867 409.895H69.3521L69.3472 409.863C69.3325 409.767 69.2926 409.682 69.2275 409.607C69.1641 409.532 69.0786 409.473 68.9712 409.431C68.8654 409.387 68.7417 409.366 68.6001 409.368C68.4634 409.368 68.3413 409.389 68.2339 409.431C68.1265 409.472 68.041 409.531 67.9775 409.609C67.9157 409.688 67.8848 409.782 67.8848 409.893V409.895C67.8848 410.025 67.9344 410.134 68.0337 410.222C68.1346 410.308 68.2982 410.376 68.5244 410.425L68.9102 410.51C69.1559 410.562 69.3553 410.632 69.5083 410.718C69.6613 410.804 69.7728 410.911 69.8428 411.038C69.9144 411.163 69.9502 411.313 69.9502 411.487V411.489C69.9502 411.714 69.8949 411.908 69.7842 412.073C69.6751 412.236 69.5197 412.362 69.3179 412.451C69.116 412.541 68.8784 412.585 68.605 412.585ZM71.7227 412.551C71.4639 412.551 71.2417 412.496 71.0562 412.385C70.8706 412.273 70.7274 412.114 70.6265 411.909C70.5272 411.704 70.4775 411.462 70.4775 411.182V411.179C70.4775 410.903 70.5272 410.661 70.6265 410.454C70.7274 410.247 70.869 410.086 71.0513 409.971C71.2352 409.855 71.45 409.797 71.6958 409.797C71.9432 409.797 72.1556 409.853 72.333 409.963C72.512 410.074 72.6496 410.229 72.7456 410.43C72.8416 410.628 72.8896 410.861 72.8896 411.128V411.313H70.7461V410.935H72.626L72.3721 411.287V411.074C72.3721 410.885 72.3428 410.729 72.2842 410.605C72.2272 410.48 72.1483 410.387 72.0474 410.325C71.9465 410.263 71.8301 410.232 71.6982 410.232C71.5664 410.232 71.4484 410.264 71.3442 410.33C71.2417 410.393 71.1603 410.487 71.1001 410.613C71.0415 410.738 71.0122 410.892 71.0122 411.074V411.287C71.0122 411.461 71.0415 411.61 71.1001 411.733C71.1587 411.857 71.2417 411.951 71.3491 412.017C71.4582 412.082 71.5868 412.114 71.7349 412.114C71.8488 412.114 71.9465 412.099 72.0278 412.068C72.1108 412.035 72.1784 411.995 72.2305 411.948C72.2842 411.901 72.3208 411.855 72.3403 411.809L72.3501 411.79H72.8628L72.8579 411.812C72.8351 411.899 72.7952 411.987 72.7383 412.075C72.6813 412.161 72.6056 412.24 72.5112 412.312C72.4185 412.384 72.3062 412.441 72.1743 412.485C72.0441 412.529 71.8936 412.551 71.7227 412.551ZM74.2471 412.544C74.0794 412.544 73.9289 412.512 73.7954 412.449C73.6636 412.384 73.5594 412.292 73.4829 412.173C73.4064 412.054 73.3682 411.915 73.3682 411.755V411.75C73.3682 411.591 73.4064 411.455 73.4829 411.343C73.561 411.23 73.6733 411.143 73.8198 411.079C73.9679 411.014 74.147 410.975 74.3569 410.962L75.3359 410.903V411.277L74.4302 411.335C74.2479 411.347 74.1136 411.386 74.0273 411.453C73.9411 411.518 73.8979 411.61 73.8979 411.729V411.733C73.8979 411.854 73.9443 411.949 74.0371 412.019C74.1299 412.087 74.2471 412.122 74.3887 412.122C74.5205 412.122 74.6377 412.096 74.7402 412.043C74.8444 411.99 74.9258 411.918 74.9844 411.829C75.043 411.737 75.0723 411.635 75.0723 411.521V410.686C75.0723 410.54 75.0267 410.428 74.9355 410.352C74.846 410.273 74.7126 410.234 74.5352 410.234C74.387 410.234 74.2658 410.26 74.1714 410.312C74.0786 410.365 74.0168 410.438 73.9858 410.532L73.981 410.54H73.4707L73.4731 410.522C73.4943 410.376 73.5521 410.249 73.6465 410.142C73.7425 410.033 73.8678 409.948 74.0225 409.888C74.1787 409.827 74.3569 409.797 74.5571 409.797C74.7801 409.797 74.9689 409.833 75.1235 409.905C75.2798 409.975 75.3978 410.076 75.4775 410.21C75.5589 410.342 75.5996 410.5 75.5996 410.686V412.5H75.0723V412.124H75.0332C74.9811 412.214 74.916 412.29 74.8379 412.354C74.7598 412.415 74.6711 412.463 74.5718 412.495C74.4725 412.528 74.3643 412.544 74.2471 412.544ZM76.3467 412.5V409.849H76.8765V410.249H76.918C76.9652 410.107 77.0482 409.998 77.167 409.919C77.2874 409.841 77.4355 409.802 77.6113 409.802C77.6553 409.802 77.6984 409.805 77.7407 409.81C77.783 409.814 77.8172 409.82 77.8433 409.827V410.315C77.7961 410.305 77.7489 410.298 77.7017 410.293C77.6561 410.288 77.6081 410.286 77.5576 410.286C77.4225 410.286 77.3037 410.312 77.2012 410.364C77.1003 410.416 77.0205 410.489 76.9619 410.583C76.9049 410.676 76.8765 410.787 76.8765 410.916V412.5H76.3467ZM79.4009 412.551C79.1437 412.551 78.9215 412.496 78.7344 412.385C78.5488 412.273 78.4056 412.113 78.3047 411.907C78.2038 411.7 78.1533 411.453 78.1533 411.167V411.162C78.1533 410.881 78.203 410.638 78.3022 410.435C78.4032 410.231 78.5464 410.074 78.7319 409.963C78.9191 409.853 79.1413 409.797 79.3984 409.797C79.6214 409.797 79.8127 409.836 79.9722 409.915C80.1333 409.991 80.2611 410.097 80.3555 410.232C80.4515 410.365 80.5117 410.518 80.5361 410.688L80.5386 410.701H80.0283L80.0259 410.696C79.9966 410.566 79.929 410.457 79.8232 410.371C79.7174 410.283 79.5767 410.239 79.4009 410.239C79.2544 410.239 79.1283 410.277 79.0225 410.352C78.9167 410.425 78.8353 410.531 78.7783 410.669C78.723 410.807 78.6953 410.972 78.6953 411.162V411.167C78.6953 411.362 78.7238 411.53 78.7808 411.67C78.8377 411.81 78.9191 411.918 79.0249 411.995C79.1307 412.069 79.256 412.107 79.4009 412.107C79.5669 412.107 79.7012 412.07 79.8037 411.997C79.9079 411.924 79.9811 411.816 80.0234 411.672L80.0283 411.66L80.5361 411.658L80.5312 411.68C80.5003 411.852 80.4377 412.004 80.3433 412.134C80.2489 412.264 80.1227 412.367 79.9648 412.441C79.8086 412.515 79.6206 412.551 79.4009 412.551ZM81.1611 412.5V408.809H81.6909V410.249H81.7324C81.7975 410.107 81.8936 409.997 82.0205 409.917C82.1475 409.837 82.3078 409.797 82.5015 409.797C82.6984 409.797 82.8652 409.836 83.002 409.912C83.1387 409.989 83.2428 410.101 83.3145 410.249C83.3861 410.396 83.4219 410.574 83.4219 410.784V412.5H82.8896V410.908C82.8896 410.687 82.8433 410.522 82.7505 410.415C82.6593 410.306 82.5161 410.251 82.3208 410.251C82.1922 410.251 82.0807 410.28 81.9863 410.337C81.8919 410.392 81.8187 410.472 81.7666 410.576C81.7161 410.679 81.6909 410.802 81.6909 410.945V412.5H81.1611Z" fill="#007AFF"/>
<path d="M69.8247 398.768C69.8247 398.138 69.9419 397.551 70.1763 397.006C70.4106 396.458 70.7358 395.976 71.1519 395.56C71.5708 395.141 72.0542 394.814 72.6021 394.58C73.1499 394.346 73.7373 394.229 74.3643 394.229C74.9883 394.229 75.5742 394.346 76.1221 394.58C76.6729 394.814 77.1562 395.141 77.5723 395.56C77.9883 395.976 78.3135 396.458 78.5479 397.006C78.7852 397.551 78.9038 398.138 78.9038 398.768C78.9038 399.266 78.8247 399.744 78.6665 400.201C78.5083 400.655 78.2886 401.066 78.0073 401.436L80.7144 404.151C80.7817 404.225 80.833 404.305 80.8682 404.393C80.9033 404.484 80.9209 404.579 80.9209 404.679C80.9209 404.816 80.8901 404.942 80.8286 405.057C80.7671 405.171 80.6792 405.262 80.5649 405.329C80.4536 405.396 80.3262 405.43 80.1826 405.43C80.083 405.43 79.9863 405.411 79.8926 405.373C79.8018 405.338 79.7197 405.285 79.6465 405.215L76.9263 402.49C76.563 402.745 76.1646 402.944 75.731 403.088C75.2974 403.231 74.8418 403.303 74.3643 403.303C73.7373 403.303 73.1499 403.186 72.6021 402.952C72.0542 402.714 71.5708 402.388 71.1519 401.972C70.7358 401.556 70.4106 401.074 70.1763 400.526C69.9419 399.978 69.8247 399.392 69.8247 398.768ZM70.8706 398.768C70.8706 399.249 70.9614 399.7 71.1431 400.122C71.3247 400.543 71.5752 400.916 71.8945 401.238C72.2139 401.557 72.5845 401.808 73.0063 401.989C73.4282 402.168 73.8809 402.257 74.3643 402.257C74.8447 402.257 75.2959 402.168 75.7178 401.989C76.1396 401.808 76.5103 401.557 76.8296 401.238C77.1519 400.916 77.4023 400.543 77.5811 400.122C77.7627 399.7 77.8535 399.249 77.8535 398.768C77.8535 398.285 77.7627 397.832 77.5811 397.41C77.4023 396.988 77.1519 396.618 76.8296 396.298C76.5103 395.976 76.1396 395.726 75.7178 395.547C75.2959 395.365 74.8447 395.274 74.3643 395.274C73.8809 395.274 73.4282 395.365 73.0063 395.547C72.5845 395.726 72.2139 395.976 71.8945 396.298C71.5752 396.618 71.3247 396.988 71.1431 397.41C70.9614 397.832 70.8706 398.285 70.8706 398.768Z" fill="#007AFF"/>
<path d="M120.281 412.585C120.015 412.585 119.784 412.544 119.587 412.461C119.39 412.376 119.235 412.259 119.121 412.109C119.007 411.96 118.942 411.786 118.926 411.589L118.923 411.558H119.463L119.465 411.584C119.477 411.69 119.518 411.782 119.59 411.86C119.663 411.938 119.761 412 119.883 412.043C120.007 412.087 120.147 412.109 120.305 412.109C120.453 412.109 120.585 412.086 120.701 412.039C120.816 411.991 120.907 411.926 120.972 411.843C121.038 411.76 121.072 411.665 121.072 411.558V411.555C121.072 411.42 121.021 411.308 120.918 411.218C120.815 411.129 120.648 411.059 120.415 411.008L120.029 410.928C119.673 410.851 119.413 410.73 119.25 410.564C119.088 410.396 119.006 410.182 119.006 409.922V409.919C119.008 409.716 119.062 409.537 119.17 409.382C119.279 409.228 119.43 409.107 119.622 409.021C119.814 408.935 120.034 408.892 120.283 408.892C120.532 408.892 120.75 408.935 120.935 409.021C121.122 409.106 121.27 409.221 121.377 409.368C121.486 409.514 121.547 409.679 121.56 409.863L121.562 409.895H121.028L121.023 409.863C121.008 409.767 120.968 409.682 120.903 409.607C120.84 409.532 120.754 409.473 120.647 409.431C120.541 409.387 120.417 409.366 120.276 409.368C120.139 409.368 120.017 409.389 119.91 409.431C119.802 409.472 119.717 409.531 119.653 409.609C119.591 409.688 119.561 409.782 119.561 409.893V409.895C119.561 410.025 119.61 410.134 119.709 410.222C119.81 410.308 119.974 410.376 120.2 410.425L120.586 410.51C120.832 410.562 121.031 410.632 121.184 410.718C121.337 410.804 121.449 410.911 121.519 411.038C121.59 411.163 121.626 411.313 121.626 411.487V411.489C121.626 411.714 121.571 411.908 121.46 412.073C121.351 412.236 121.195 412.362 120.994 412.451C120.792 412.541 120.554 412.585 120.281 412.585ZM122.31 412.5V408.809H122.839V410.249H122.881C122.946 410.107 123.042 409.997 123.169 409.917C123.296 409.837 123.456 409.797 123.65 409.797C123.847 409.797 124.014 409.836 124.15 409.912C124.287 409.989 124.391 410.101 124.463 410.249C124.535 410.396 124.57 410.574 124.57 410.784V412.5H124.038V410.908C124.038 410.687 123.992 410.522 123.899 410.415C123.808 410.306 123.665 410.251 123.469 410.251C123.341 410.251 123.229 410.28 123.135 410.337C123.04 410.392 122.967 410.472 122.915 410.576C122.865 410.679 122.839 410.802 122.839 410.945V412.5H122.31ZM126.035 412.544C125.868 412.544 125.717 412.512 125.583 412.449C125.452 412.384 125.347 412.292 125.271 412.173C125.194 412.054 125.156 411.915 125.156 411.755V411.75C125.156 411.591 125.194 411.455 125.271 411.343C125.349 411.23 125.461 411.143 125.608 411.079C125.756 411.014 125.935 410.975 126.145 410.962L127.124 410.903V411.277L126.218 411.335C126.036 411.347 125.902 411.386 125.815 411.453C125.729 411.518 125.686 411.61 125.686 411.729V411.733C125.686 411.854 125.732 411.949 125.825 412.019C125.918 412.087 126.035 412.122 126.177 412.122C126.309 412.122 126.426 412.096 126.528 412.043C126.632 411.99 126.714 411.918 126.772 411.829C126.831 411.737 126.86 411.635 126.86 411.521V410.686C126.86 410.54 126.815 410.428 126.724 410.352C126.634 410.273 126.501 410.234 126.323 410.234C126.175 410.234 126.054 410.26 125.959 410.312C125.867 410.365 125.805 410.438 125.774 410.532L125.769 410.54H125.259L125.261 410.522C125.282 410.376 125.34 410.249 125.435 410.142C125.531 410.033 125.656 409.948 125.811 409.888C125.967 409.827 126.145 409.797 126.345 409.797C126.568 409.797 126.757 409.833 126.912 409.905C127.068 409.975 127.186 410.076 127.266 410.21C127.347 410.342 127.388 410.5 127.388 410.686V412.5H126.86V412.124H126.821C126.769 412.214 126.704 412.29 126.626 412.354C126.548 412.415 126.459 412.463 126.36 412.495C126.261 412.528 126.152 412.544 126.035 412.544ZM128.135 412.5V409.849H128.665V410.249H128.706C128.753 410.107 128.836 409.998 128.955 409.919C129.076 409.841 129.224 409.802 129.399 409.802C129.443 409.802 129.486 409.805 129.529 409.81C129.571 409.814 129.605 409.82 129.631 409.827V410.315C129.584 410.305 129.537 410.298 129.49 410.293C129.444 410.288 129.396 410.286 129.346 410.286C129.211 410.286 129.092 410.312 128.989 410.364C128.888 410.416 128.809 410.489 128.75 410.583C128.693 410.676 128.665 410.787 128.665 410.916V412.5H128.135ZM131.187 412.551C130.928 412.551 130.706 412.496 130.52 412.385C130.334 412.273 130.191 412.114 130.09 411.909C129.991 411.704 129.941 411.462 129.941 411.182V411.179C129.941 410.903 129.991 410.661 130.09 410.454C130.191 410.247 130.333 410.086 130.515 409.971C130.699 409.855 130.914 409.797 131.16 409.797C131.407 409.797 131.619 409.853 131.797 409.963C131.976 410.074 132.113 410.229 132.209 410.43C132.306 410.628 132.354 410.861 132.354 411.128V411.313H130.21V410.935H132.09L131.836 411.287V411.074C131.836 410.885 131.807 410.729 131.748 410.605C131.691 410.48 131.612 410.387 131.511 410.325C131.41 410.263 131.294 410.232 131.162 410.232C131.03 410.232 130.912 410.264 130.808 410.33C130.706 410.393 130.624 410.487 130.564 410.613C130.505 410.738 130.476 410.892 130.476 411.074V411.287C130.476 411.461 130.505 411.61 130.564 411.733C130.623 411.857 130.706 411.951 130.813 412.017C130.922 412.082 131.051 412.114 131.199 412.114C131.313 412.114 131.41 412.099 131.492 412.068C131.575 412.035 131.642 411.995 131.694 411.948C131.748 411.901 131.785 411.855 131.804 411.809L131.814 411.79H132.327L132.322 411.812C132.299 411.899 132.259 411.987 132.202 412.075C132.145 412.161 132.069 412.24 131.975 412.312C131.882 412.384 131.77 412.441 131.638 412.485C131.508 412.529 131.357 412.551 131.187 412.551Z" fill="#999999"/>
<path d="M122.36 405.795C121.771 405.795 121.324 405.644 121.02 405.342C120.718 405.043 120.567 404.603 120.567 404.02V398.474C120.567 397.891 120.718 397.45 121.02 397.151C121.324 396.849 121.771 396.698 122.36 396.698H125.058V400.921C125.058 401.024 125.084 401.118 125.137 401.203C125.19 401.285 125.259 401.352 125.344 401.405C125.432 401.455 125.527 401.479 125.629 401.479C125.732 401.479 125.826 401.455 125.911 401.405C125.999 401.352 126.069 401.285 126.122 401.203C126.174 401.118 126.201 401.024 126.201 400.921V396.698H128.895C129.483 396.698 129.929 396.849 130.23 397.151C130.532 397.45 130.683 397.891 130.683 398.474V404.02C130.683 404.603 130.532 405.043 130.23 405.342C129.929 405.644 129.483 405.795 128.895 405.795H122.36ZM125.629 397.199C125.503 397.199 125.395 397.155 125.304 397.067C125.213 396.979 125.168 396.874 125.168 396.751V395.006L125.208 394.171L124.79 394.646L123.929 395.542C123.844 395.636 123.74 395.683 123.617 395.683C123.502 395.683 123.406 395.646 123.327 395.573C123.248 395.497 123.208 395.4 123.208 395.283C123.208 395.225 123.218 395.172 123.239 395.125C123.262 395.078 123.296 395.033 123.34 394.989L125.282 393.104C125.341 393.048 125.398 393.008 125.454 392.985C125.509 392.961 125.568 392.95 125.629 392.95C125.691 392.95 125.75 392.961 125.805 392.985C125.861 393.008 125.918 393.048 125.977 393.104L127.919 394.989C127.96 395.033 127.992 395.078 128.016 395.125C128.039 395.172 128.051 395.225 128.051 395.283C128.051 395.4 128.01 395.497 127.928 395.573C127.846 395.646 127.749 395.683 127.638 395.683C127.515 395.683 127.411 395.636 127.326 395.542L126.469 394.646L126.051 394.171L126.091 395.006V396.751C126.091 396.874 126.045 396.979 125.955 397.067C125.864 397.155 125.755 397.199 125.629 397.199Z" fill="#999999"/>
<path d="M168.766 411.296V410.837H169.728C169.965 410.837 170.149 410.776 170.279 410.654C170.411 410.531 170.477 410.36 170.477 410.142V410.137C170.477 409.915 170.411 409.744 170.279 409.622C170.149 409.5 169.965 409.438 169.728 409.438H168.766V408.977H169.864C170.095 408.977 170.298 409.026 170.472 409.124C170.648 409.22 170.785 409.355 170.885 409.529C170.984 409.701 171.034 409.902 171.034 410.132V410.137C171.034 410.366 170.984 410.569 170.885 410.745C170.785 410.919 170.648 411.055 170.472 411.152C170.298 411.248 170.095 411.296 169.864 411.296H168.766ZM168.492 412.5V408.977H169.039V412.5H168.492ZM171.678 412.5V409.849H172.208V410.249H172.25C172.297 410.107 172.38 409.998 172.499 409.919C172.619 409.841 172.767 409.802 172.943 409.802C172.987 409.802 173.03 409.805 173.072 409.81C173.115 409.814 173.149 409.82 173.175 409.827V410.315C173.128 410.305 173.08 410.298 173.033 410.293C172.988 410.288 172.94 410.286 172.889 410.286C172.754 410.286 172.635 410.312 172.533 410.364C172.432 410.416 172.352 410.489 172.293 410.583C172.236 410.676 172.208 410.787 172.208 410.916V412.5H171.678ZM174.74 412.551C174.481 412.551 174.257 412.496 174.068 412.385C173.881 412.275 173.737 412.117 173.636 411.912C173.535 411.705 173.485 411.46 173.485 411.177V411.172C173.485 410.887 173.535 410.642 173.636 410.437C173.739 410.232 173.884 410.074 174.071 409.963C174.26 409.853 174.483 409.797 174.74 409.797C174.999 409.797 175.222 409.853 175.409 409.963C175.596 410.072 175.74 410.23 175.841 410.437C175.943 410.642 175.995 410.887 175.995 411.172V411.177C175.995 411.46 175.943 411.705 175.841 411.912C175.74 412.117 175.596 412.275 175.409 412.385C175.223 412.496 175 412.551 174.74 412.551ZM174.74 412.107C174.891 412.107 175.02 412.07 175.125 411.997C175.231 411.922 175.312 411.816 175.367 411.677C175.423 411.539 175.45 411.372 175.45 411.177V411.172C175.45 410.975 175.423 410.807 175.367 410.669C175.312 410.531 175.231 410.425 175.125 410.352C175.02 410.277 174.891 410.239 174.74 410.239C174.588 410.239 174.46 410.277 174.354 410.352C174.248 410.425 174.167 410.531 174.11 410.669C174.055 410.807 174.027 410.975 174.027 411.172V411.177C174.027 411.372 174.055 411.539 174.11 411.677C174.167 411.816 174.248 411.922 174.354 411.997C174.46 412.07 174.588 412.107 174.74 412.107ZM176.812 412.5V410.266H176.375V409.849H176.812V409.57C176.812 409.393 176.842 409.246 176.9 409.131C176.961 409.014 177.052 408.927 177.174 408.87C177.296 408.813 177.45 408.784 177.635 408.784C177.694 408.784 177.748 408.787 177.799 408.792C177.851 408.795 177.901 408.8 177.948 408.809V409.199C177.923 409.194 177.893 409.191 177.857 409.189C177.823 409.186 177.786 409.185 177.745 409.185C177.599 409.185 177.494 409.22 177.43 409.29C177.368 409.36 177.337 409.461 177.337 409.595V409.849H177.923V410.266H177.342V412.5H176.812ZM178.526 412.5V409.849H179.059V412.5H178.526ZM178.795 409.375C178.704 409.375 178.626 409.342 178.561 409.277C178.495 409.212 178.463 409.134 178.463 409.043C178.463 408.952 178.495 408.875 178.561 408.811C178.626 408.746 178.704 408.713 178.795 408.713C178.886 408.713 178.964 408.746 179.029 408.811C179.094 408.875 179.127 408.952 179.127 409.043C179.127 409.134 179.094 409.212 179.029 409.277C178.964 409.342 178.886 409.375 178.795 409.375ZM179.852 412.5V408.809H180.382V412.5H179.852ZM182.284 412.551C182.025 412.551 181.803 412.496 181.617 412.385C181.432 412.273 181.288 412.114 181.188 411.909C181.088 411.704 181.039 411.462 181.039 411.182V411.179C181.039 410.903 181.088 410.661 181.188 410.454C181.288 410.247 181.43 410.086 181.612 409.971C181.796 409.855 182.011 409.797 182.257 409.797C182.504 409.797 182.717 409.853 182.894 409.963C183.073 410.074 183.211 410.229 183.307 410.43C183.403 410.628 183.451 410.861 183.451 411.128V411.313H181.307V410.935H183.187L182.933 411.287V411.074C182.933 410.885 182.904 410.729 182.845 410.605C182.788 410.48 182.709 410.387 182.608 410.325C182.507 410.263 182.391 410.232 182.259 410.232C182.127 410.232 182.009 410.264 181.905 410.33C181.803 410.393 181.721 410.487 181.661 410.613C181.603 410.738 181.573 410.892 181.573 411.074V411.287C181.573 411.461 181.603 411.61 181.661 411.733C181.72 411.857 181.803 411.951 181.91 412.017C182.019 412.082 182.148 412.114 182.296 412.114C182.41 412.114 182.507 412.099 182.589 412.068C182.672 412.035 182.739 411.995 182.792 411.948C182.845 411.901 182.882 411.855 182.901 411.809L182.911 411.79H183.424L183.419 411.812C183.396 411.899 183.356 411.987 183.299 412.075C183.242 412.161 183.167 412.24 183.072 412.312C182.979 412.384 182.867 412.441 182.735 412.485C182.605 412.529 182.455 412.551 182.284 412.551Z" fill="#999999"/>
<path d="M172.074 404.92C171.772 404.92 171.533 404.852 171.357 404.714C171.185 404.576 171.098 404.389 171.098 404.151C171.098 403.858 171.17 403.552 171.313 403.233C171.457 402.917 171.664 402.607 171.933 402.306C172.206 402.001 172.535 401.729 172.922 401.488C173.312 401.245 173.754 401.052 174.249 400.908C174.744 400.762 175.285 400.688 175.871 400.688C176.459 400.688 177.001 400.762 177.497 400.908C177.992 401.052 178.433 401.245 178.819 401.488C179.209 401.729 179.54 402.001 179.812 402.306C180.085 402.607 180.292 402.917 180.432 403.233C180.576 403.552 180.647 403.858 180.647 404.151C180.647 404.389 180.561 404.576 180.388 404.714C180.215 404.852 179.977 404.92 179.672 404.92H172.074ZM175.875 399.682C175.567 399.682 175.276 399.618 175 399.489C174.728 399.36 174.486 399.183 174.275 398.957C174.067 398.729 173.903 398.463 173.783 398.162C173.666 397.857 173.607 397.53 173.607 397.182C173.607 396.839 173.666 396.52 173.783 396.224C173.903 395.928 174.069 395.667 174.28 395.441C174.491 395.216 174.732 395.042 175.005 394.918C175.28 394.792 175.57 394.729 175.875 394.729C176.186 394.729 176.477 394.791 176.75 394.914C177.022 395.037 177.262 395.21 177.47 395.433C177.681 395.655 177.847 395.915 177.967 396.21C178.087 396.506 178.147 396.827 178.147 397.173C178.147 397.642 178.043 398.066 177.835 398.447C177.63 398.825 177.354 399.125 177.009 399.348C176.666 399.571 176.288 399.682 175.875 399.682Z" fill="#999999"/>
</g>
</g>
<rect x="0.5" y="0.5" width="200" height="436" rx="12" stroke="black"/>
<defs>
<filter id="filter0_b_220_1066" x="-25" y="-25" width="251" height="93" filterUnits="userSpaceOnUse" color-interpolation-filters="sRGB">
<feFlood flood-opacity="0" result="BackgroundImageFix"/>
<feGaussianBlur in="BackgroundImageFix" stdDeviation="12.5"/>
<feComposite in2="SourceAlpha" operator="in" result="effect1_backgroundBlur_220_1066"/>
<feBlend mode="normal" in="SourceGraphic" in2="effect1_backgroundBlur_220_1066" result="shape"/>
</filter>
<filter id="filter1_b_220_1066" x="-25" y="365" width="251" height="97" filterUnits="userSpaceOnUse" color-interpolation-filters="sRGB">
<feFlood flood-opacity="0" result="BackgroundImageFix"/>
<feGaussianBlur in="BackgroundImageFix" stdDeviation="12.5"/>
<feComposite in2="SourceAlpha" operator="in" result="effect1_backgroundBlur_220_1066"/>
<feBlend mode="normal" in="SourceGraphic" in2="effect1_backgroundBlur_220_1066" result="shape"/>
</filter>
<clipPath id="clip0_220_1066">
<rect width="201" height="437" rx="12.5" fill="white"/>
</clipPath>
<clipPath id="clip1_220_1066">
<rect width="201" height="437" rx="12.5" fill="white"/>
</clipPath>
<clipPath id="clip2_220_1066">
<rect width="201.5" height="276" fill="white" transform="translate(-0.5 114)"/>
</clipPath>
<clipPath id="clip3_220_1066">
<rect width="201" height="43" fill="white"/>
</clipPath>
<clipPath id="clip4_220_1066">
<path d="M0 390H201V437H0V390Z" fill="white"/>
</clipPath>
</defs>
</svg>
